<svg width="63" height="96" viewBox="0 0 63 96" fill="none" xmlns="http://www.w3.org/2000/svg">
<g filter="url(#filter0_d_225_3801)">
<path d="M4.11328 76.3479V66.6799C7.48828 69.1409 11.4258 70.3713 15.9258 70.3713C18.7617 70.3713 20.9648 69.762 22.5352 68.5432C24.1289 67.3245 24.9258 65.6252 24.9258 63.4456C24.9258 61.1956 23.9414 59.4612 21.9727 58.2424C20.0273 57.0237 17.3438 56.4143 13.9219 56.4143H9.24609V47.9065H13.5703C20.1328 47.9065 23.4141 45.7268 23.4141 41.3674C23.4141 37.2659 20.8945 35.2151 15.8555 35.2151C12.4805 35.2151 9.19922 36.3049 6.01172 38.4846V29.4143C9.55078 27.6331 13.6758 26.7424 18.3867 26.7424C23.543 26.7424 27.5508 27.9026 30.4102 30.2229C33.293 32.5432 34.7344 35.5549 34.7344 39.2581C34.7344 45.844 31.3945 49.969 24.7148 51.6331V51.8088C28.2773 52.2542 31.0898 53.5549 33.1523 55.7112C35.2148 57.844 36.2461 60.469 36.2461 63.5862C36.2461 68.2971 34.5234 72.0237 31.0781 74.7659C27.6328 77.5081 22.875 78.8792 16.8047 78.8792C11.6016 78.8792 7.37109 78.0354 4.11328 76.3479Z" fill="#262626"/>
<path d="M51.6328 78.8792C49.8047 78.8792 48.2812 78.3167 47.0625 77.1917C45.8438 76.0667 45.2344 74.6838 45.2344 73.0432C45.2344 71.3557 45.8555 69.9729 47.0977 68.8948C48.3633 67.8167 49.9336 67.2776 51.8086 67.2776C53.707 67.2776 55.2539 67.8284 56.4492 68.9299C57.668 70.0081 58.2773 71.3792 58.2773 73.0432C58.2773 74.7542 57.6562 76.1604 56.4141 77.262C55.1953 78.3401 53.6016 78.8792 51.6328 78.8792Z" fill="white"/>
</g>
<defs>
<filter id="filter0_d_225_3801" x="-4" y="0.000244141" width="70" height="104" filterUnits="userSpaceOnUse" color-interpolation-filters="sRGB">
<feFlood flood-opacity="0" result="BackgroundImageFix"/>
<feColorMatrix in="SourceAlpha" type="matrix" values="0 0 0 0 0 0 0 0 0 0 0 0 0 0 0 0 0 0 127 0" result="hardAlpha"/>
<feOffset dy="4"/>
<feGaussianBlur stdDeviation="2"/>
<feComposite in2="hardAlpha" operator="out"/>
<feColorMatrix type="matrix" values="0 0 0 0 0 0 0 0 0 0 0 0 0 0 0 0 0 0 0.25 0"/>
<feBlend mode="normal" in2="BackgroundImageFix" result="effect1_dropShadow_225_3801"/>
<feBlend mode="normal" in="SourceGraphic" in2="effect1_dropShadow_225_3801" result="shape"/>
</filter>
</defs>
</svg>
