<svg width="62" height="96" viewBox="0 0 62 96" fill="none" xmlns="http://www.w3.org/2000/svg">
<path d="M15.082 68.7891H36.457V78H2.91797V74.2031C2.91797 71.625 3.35156 69.3164 4.21875 67.2773C5.08594 65.2148 6.17578 63.375 7.48828 61.7578C8.80078 60.1172 10.2305 58.6758 11.7773 57.4336C13.3477 56.168 14.8359 55.0312 16.2422 54.0234C17.7188 52.9688 19.0078 51.9609 20.1094 51C21.2344 50.0391 22.1719 49.0898 22.9219 48.1523C23.6953 47.1914 24.2695 46.2305 24.6445 45.2695C25.0195 44.2852 25.207 43.2422 25.207 42.1406C25.207 39.9844 24.5977 38.3555 23.3789 37.2539C22.1602 36.1523 20.2969 35.6016 17.7891 35.6016C13.4531 35.6016 9.30469 37.3242 5.34375 40.7695V30.9961C9.72656 28.1602 14.6719 26.7422 20.1797 26.7422C22.7344 26.7422 25.0195 27.082 27.0352 27.7617C29.0742 28.418 30.7969 29.3672 32.2031 30.6094C33.6094 31.8516 34.6758 33.3633 35.4023 35.1445C36.1523 36.9023 36.5273 38.8711 36.5273 41.0508C36.5273 43.3711 36.1641 45.4336 35.4375 47.2383C34.7344 49.043 33.7852 50.6836 32.5898 52.1602C31.418 53.6367 30.0586 54.9961 28.5117 56.2383C26.9648 57.457 25.3594 58.6406 23.6953 59.7891C22.5703 60.5859 21.4805 61.3828 20.4258 62.1797C19.3945 62.9531 18.4805 63.7266 17.6836 64.5C16.8867 65.25 16.2539 65.9883 15.7852 66.7148C15.3164 67.4414 15.082 68.1328 15.082 68.7891Z" fill="#262626"/>
<path d="M51.6328 78.8789C49.8047 78.8789 48.2812 78.3164 47.0625 77.1914C45.8438 76.0664 45.2344 74.6836 45.2344 73.043C45.2344 71.3555 45.8555 69.9727 47.0977 68.8945C48.3633 67.8164 49.9336 67.2773 51.8086 67.2773C53.707 67.2773 55.2539 67.8281 56.4492 68.9297C57.668 70.0078 58.2773 71.3789 58.2773 73.043C58.2773 74.7539 57.6562 76.1602 56.4141 77.2617C55.1953 78.3398 53.6016 78.8789 51.6328 78.8789Z" fill="white"/>
</svg>
