<svg width="62" height="96" viewBox="0 0 62 96" fill="none" xmlns="http://www.w3.org/2000/svg">
<path d="M33.4688 27.5859V59.3672H39.5156V67.6641H33.4688V78H23.3438V67.6641H1.37109V58.9805C3.31641 56.8008 5.33203 54.4219 7.41797 51.8438C9.50391 49.2422 11.5195 46.5703 13.4648 43.8281C15.4102 41.0859 17.2148 38.332 18.8789 35.5664C20.5664 32.7773 21.9961 30.1172 23.168 27.5859H33.4688ZM11.3203 59.3672H23.3438V41.7539C22.5234 43.2773 21.6328 44.8242 20.6719 46.3945C19.7109 47.9414 18.7031 49.4766 17.6484 51C16.5938 52.5 15.5273 53.9648 14.4492 55.3945C13.3711 56.8008 12.3281 58.125 11.3203 59.3672Z" fill="#262626"/>
<path d="M51.6328 78.8789C49.8047 78.8789 48.2812 78.3164 47.0625 77.1914C45.8438 76.0664 45.2344 74.6836 45.2344 73.043C45.2344 71.3555 45.8555 69.9727 47.0977 68.8945C48.3633 67.8164 49.9336 67.2773 51.8086 67.2773C53.707 67.2773 55.2539 67.8281 56.4492 68.9297C57.668 70.0078 58.2773 71.3789 58.2773 73.043C58.2773 74.7539 57.6562 76.1602 56.4141 77.2617C55.1953 78.3398 53.6016 78.8789 51.6328 78.8789Z" fill="#F9B800"/>
</svg>
