<svg width="62" height="96" viewBox="0 0 62 96" fill="none" xmlns="http://www.w3.org/2000/svg">
<path d="M29.25 26.4609V78H18.1758V38.9766C17.5664 39.5156 16.8398 40.0312 15.9961 40.5234C15.1758 40.9922 14.2969 41.4258 13.3594 41.8242C12.4219 42.1992 11.4492 42.5273 10.4414 42.8086C9.43359 43.0664 8.4375 43.2539 7.45312 43.3711V34.0195C10.3359 33.1758 13.0547 32.0977 15.6094 30.7852C18.1641 29.4727 20.4727 28.0313 22.5352 26.4609H29.25Z" fill="#262626"/>
<path d="M51.6328 78.8789C49.8047 78.8789 48.2812 78.3164 47.0625 77.1914C45.8438 76.0664 45.2344 74.6836 45.2344 73.043C45.2344 71.3555 45.8555 69.9727 47.0977 68.8945C48.3633 67.8164 49.9336 67.2773 51.8086 67.2773C53.707 67.2773 55.2539 67.8281 56.4492 68.9297C57.668 70.0078 58.2773 71.3789 58.2773 73.043C58.2773 74.7539 57.6562 76.1602 56.4141 77.2617C55.1953 78.3398 53.6016 78.8789 51.6328 78.8789Z" fill="#F9B800"/>
</svg>
